<?xml version="1.0" encoding="UTF-8" standalone="no"?>
<!-- Created with Inkscape (http://www.inkscape.org/) -->

<svg
   width="210mm"
   height="297mm"
   viewBox="0 0 210 297"
   version="1.1"
   id="svg1"
   inkscape:version="1.3.2 (091e20e, 2023-11-25, custom)"
   sodipodi:docname="1..svg"
   xmlns:inkscape="http://www.inkscape.org/namespaces/inkscape"
   xmlns:sodipodi="http://sodipodi.sourceforge.net/DTD/sodipodi-0.dtd"
   xmlns="http://www.w3.org/2000/svg"
   xmlns:svg="http://www.w3.org/2000/svg">
  <sodipodi:namedview
     id="namedview1"
     pagecolor="#ffffff"
     bordercolor="#000000"
     borderopacity="0.25"
     inkscape:showpageshadow="2"
     inkscape:pageopacity="0.0"
     inkscape:pagecheckerboard="0"
     inkscape:deskcolor="#d1d1d1"
     inkscape:document-units="mm"
     inkscape:zoom="0.69219276"
     inkscape:cx="396.56583"
     inkscape:cy="561.25984"
     inkscape:window-width="1920"
     inkscape:window-height="991"
     inkscape:window-x="-9"
     inkscape:window-y="-9"
     inkscape:window-maximized="1"
     inkscape:current-layer="layer1" />
  <defs
     id="defs1" />
  <g
     inkscape:label="Réteg 1"
     inkscape:groupmode="layer"
     id="layer1">
    <text
       xml:space="preserve"
       style="font-size:21.1667px;font-family:'Arial Rounded MT Bold';-inkscape-font-specification:'Arial Rounded MT Bold, ';fill:#5b603a;stroke-width:1;stroke-linejoin:round"
       x="78.35907"
       y="126.52123"
       id="text1"><tspan
         sodipodi:role="line"
         id="tspan1"
         style="stroke-width:1"
         x="78.35907"
         y="126.52123" /></text>
    <g
       id="g1"
       transform="matrix(1.2694471,0,0,1.3757298,12.639775,-122.87943)">
      <g
         id="g8">
        <path
           style="fill:#5b603a;fill-opacity:1;stroke:none;stroke-width:0.264583;stroke-opacity:1"
           d="m 29.210642,180.14219 c -46.159914,-13.16907 4.739958,-42.12094 0,-0.19112"
           id="path1-1"
           sodipodi:nodetypes="cc" />
        <path
           style="fill:#5b603a;fill-opacity:1;stroke:none;stroke-width:0.264583;stroke-opacity:1"
           d="m 10.028262,178.40319 c 46.159914,13.16907 -4.739959,42.12095 0,0.19112"
           id="path1-2-0"
           sodipodi:nodetypes="cc" />
        <path
           style="fill:#5b603a;fill-opacity:1;stroke:none;stroke-width:0.264583;stroke-opacity:1"
           d="m 128.55193,179.76989 c -46.159911,-13.16907 4.73996,-42.12095 0,-0.19112"
           id="path1-5-58"
           sodipodi:nodetypes="cc" />
        <path
           style="fill:#5b603a;fill-opacity:1;stroke:none;stroke-width:0.264583;stroke-opacity:1"
           d="m 109.36955,178.03089 c 46.15992,13.16907 -4.73996,42.12095 0,0.19112"
           id="path1-2-1-3"
           sodipodi:nodetypes="cc" />
        <path
           style="fill:#5b603a;fill-opacity:1;stroke:none;stroke-width:0.264583;stroke-opacity:1"
           d="m 59.216434,158.9279 c 0.200334,13.69688 0.191119,27.39259 0.191119,41.09074 16.311761,1.17665 20.57693,-3.66344 20.640928,-20.25869 0.09356,-22.96029 -10.783537,-21.05922 -20.832047,-20.83205 z"
           id="path4-84"
           sodipodi:nodetypes="cccc" />
        <path
           style="fill:#5b603a;fill-opacity:1;stroke:none;stroke-width:1;stroke-linejoin:round;stroke-dasharray:none;stroke-opacity:1"
           d="M 85.340328,159.21511 85.14921,176.607 c 16.59646,-1.66301 13.539409,7.82039 0.382239,5.16023 -0.936652,-0.18938 -0.382238,17.77413 -0.382238,17.77413 6.026157,0.11742 19.149929,1.81138 18.538609,-6.68919 l -0.19112,-28.28571 c 0.34781,-7.23622 -9.958164,-6.3685 -18.156372,-5.35135 z"
           id="path8-1"
           sodipodi:nodetypes="ccscccc" />
        <path
           style="fill:#5b603a;fill-opacity:1;stroke:none;stroke-width:1;stroke-linejoin:round;stroke-dasharray:none;stroke-opacity:1"
           d="m 35.403616,159.60151 -0.191118,17.39189 c 16.59646,-1.66301 13.539409,7.82039 0.382239,5.16023 -0.936652,-0.18938 -0.382238,17.77413 -0.382238,17.77413 6.026157,0.11742 19.149926,1.81138 18.538606,-6.68919 l -0.19112,-28.28571 c 0.34781,-7.23622 -9.958161,-6.3685 -18.156369,-5.35135 z"
           id="path8-1-9"
           sodipodi:nodetypes="ccscccc" />
      </g>
    </g>
    <path
       style="fill:#5b603a;stroke-width:1;stroke-linejoin:round"
       d="m 49.691119,159.39382 c 2.326616,15.46255 14.316059,9.3496 15.289575,0 z m 10.320464,-10.7027"
       id="path1"
       sodipodi:nodetypes="ccc" />
    <path
       style="fill:#5b603a;stroke-width:1;stroke-linejoin:round"
       d="m 131.5506,158.7827 c 2.32662,15.46255 14.31606,9.3496 15.28958,0 z M 141.87107,148.08"
       id="path1-3"
       sodipodi:nodetypes="ccc" />
    <path
       style="fill:#5b603a;stroke-width:2.95779;stroke-linejoin:round"
       d="m 55.53494,86.901885 c 12.970883,-24.264579 79.81203,-14.671843 85.23938,0 z m 57.53659,16.795195"
       id="path1-6"
       sodipodi:nodetypes="ccc" />
  </g>
</svg>
