<?xml version="1.0" encoding="UTF-8" standalone="no"?>
<!-- Created with Inkscape (http://www.inkscape.org/) -->

<svg
   width="210mm"
   height="297mm"
   viewBox="0 0 210 297"
   version="1.1"
   id="svg1"
   inkscape:version="1.3.2 (091e20e, 2023-11-25, custom)"
   sodipodi:docname="2..svg"
   xmlns:inkscape="http://www.inkscape.org/namespaces/inkscape"
   xmlns:sodipodi="http://sodipodi.sourceforge.net/DTD/sodipodi-0.dtd"
   xmlns="http://www.w3.org/2000/svg"
   xmlns:svg="http://www.w3.org/2000/svg">
  <sodipodi:namedview
     id="namedview1"
     pagecolor="#ffffff"
     bordercolor="#000000"
     borderopacity="0.25"
     inkscape:showpageshadow="2"
     inkscape:pageopacity="0.0"
     inkscape:pagecheckerboard="0"
     inkscape:deskcolor="#d1d1d1"
     inkscape:document-units="mm"
     inkscape:zoom="1.3843855"
     inkscape:cx="396.92701"
     inkscape:cy="350.69711"
     inkscape:window-width="1920"
     inkscape:window-height="991"
     inkscape:window-x="-9"
     inkscape:window-y="-9"
     inkscape:window-maximized="1"
     inkscape:current-layer="layer1" />
  <defs
     id="defs1" />
  <g
     inkscape:label="Réteg 1"
     inkscape:groupmode="layer"
     id="layer1">
    <path
       style="fill:#753f28;fill-opacity:1;stroke-width:1;stroke-linejoin:round"
       d="M 52.652802,276.63065 C 0,0 0,0 52.652802,276.63065 Z"
       id="path1-4"
       sodipodi:nodetypes="cc" />
    <circle
       id="path8"
       style="fill:#000000;stroke:#000000;stroke-width:0.264583"
       cx="162.0695"
       cy="67.274132"
       r="0.050913915" />
    <path
       style="fill:#a05a2c;fill-opacity:1;stroke-width:0.292965"
       d="m 62.677601,69.185318 c -36.460528,-0.65017 -37.481918,14.644708 -20.15167,21.787648 16.085632,5.54338 14.010756,11.165494 9.760263,11.658304 -9.118349,3.48258 -20.180969,-0.65963 -20.261539,1.33784 l -0.277524,6.88031 120.048829,0.19112 c 38.85034,1.28019 17.28559,-18.970067 9.82988,-21.84274 -9.39243,-3.618888 -11.13942,-5.432065 -11.28043,-10.074249 0.38152,-3.240199 1.30526,-3.797277 24.5291,-3.057918 l -0.19112,-7.262545 z"
       id="path21"
       sodipodi:nodetypes="cccsccscccc" />
    <path
       style="fill:#ffffff;fill-opacity:1;stroke-width:0.264583"
       d="M 56.651617,75.257116 56.269378,89.591099 C 37.640234,86.707039 31.783652,73.524686 56.651617,75.257116 Z"
       id="path22"
       sodipodi:nodetypes="ccc" />
    <path
       style="fill:#ffffff;fill-opacity:1;stroke-width:0.264583"
       d="m 150.47608,105.02929 0,-13.378382 c 19.70784,3.590059 24.5542,16.405382 0,13.378382 z"
       id="path22-7"
       sodipodi:nodetypes="ccc" />
    <path
       id="rect4"
       style="fill:#502d16;fill-opacity:1;stroke:none;stroke-width:0.279287;stroke-dasharray:none;stroke-opacity:1"
       d="m 63.319688,74.729978 v 12.26634 h 24.498005 v -12.26634 z m 11.624456,5.59895 a 4.1618381,1.0419324 0 0 1 4.162241,1.04203 4.1618381,1.0419324 0 0 1 -4.162241,1.04168 4.1618381,1.0419324 0 0 1 -4.161539,-1.04168 4.1618381,1.0419324 0 0 1 4.161539,-1.04203 z" />
    <path
       id="rect4-0"
       style="fill:#502d16;fill-opacity:1;stroke:none;stroke-width:0.279287;stroke-dasharray:none;stroke-opacity:1"
       d="M 63.147032,92.739098 V 105.00544 H 87.645037 V 92.739098 Z m 11.624456,5.59895 a 4.1618381,1.0419324 0 0 1 4.162241,1.04203 4.1618381,1.0419324 0 0 1 -4.162241,1.041682 4.1618381,1.0419324 0 0 1 -4.161539,-1.041682 4.1618381,1.0419324 0 0 1 4.161539,-1.04203 z" />
    <path
       id="rect4-0-8"
       style="fill:#502d16;fill-opacity:1;stroke:none;stroke-width:0.279287;stroke-dasharray:none;stroke-opacity:1"
       d="m 119.65934,75.358708 v 12.26634 h 24.49801 v -12.26634 z m 11.62446,5.59895 a 4.1618381,1.0419324 0 0 1 4.16224,1.04203 4.1618381,1.0419324 0 0 1 -4.16224,1.04168 4.1618381,1.0419324 0 0 1 -4.16154,-1.04168 4.1618381,1.0419324 0 0 1 4.16154,-1.04203 z" />
    <path
       id="rect4-0-8-0"
       style="fill:#502d16;fill-opacity:1;stroke:none;stroke-width:0.279287;stroke-dasharray:none;stroke-opacity:1"
       d="M 119.88609,92.739098 V 105.00544 H 144.3841 V 92.739098 Z m 11.62446,5.59895 a 4.1618381,1.0419324 0 0 1 4.16224,1.04203 4.1618381,1.0419324 0 0 1 -4.16224,1.041682 4.1618381,1.0419324 0 0 1 -4.16154,-1.041682 4.1618381,1.0419324 0 0 1 4.16154,-1.04203 z" />
    <path
       style="fill:#ffffff;fill-opacity:1;stroke:none;stroke-width:0.232038;stroke-opacity:1"
       d="m 93.516458,74.508828 c 0.200334,10.53452 0.191119,21.06815 0.191119,31.603652 16.311753,0.90498 20.576923,-2.81762 20.640923,-15.581342 0.0936,-17.65918 -10.78354,-16.19703 -20.832042,-16.02231 z"
       id="path4"
       sodipodi:nodetypes="cccc" />
    <circle
       id="path8-9"
       style="fill:#000000;stroke:#000000;stroke-width:0.264583"
       cx="162.4977"
       cy="138.40364"
       r="0.050913915" />
    <path
       style="fill:#ffffff;fill-opacity:1;stroke-width:0.261442"
       d="m 53.941701,146.03959 v 14.18225 c -15.82486,-2.81599 -17.81636,-15.87379 0,-14.18225 z m 2.94698,-0.22961 -0.38224,15.67512 c -15.82485,-2.81598 -17.05187,-17.36665 0.38224,-15.67512 z"
       id="path22-9"
       sodipodi:nodetypes="cccccc" />
    <path
       style="fill:#ffffff;fill-opacity:1;stroke-width:0.241738"
       d="m 153.46901,175.98559 v -12.12513 c 15.82486,2.40753 17.81636,13.57131 0,12.12513 z m -2.94698,0.1963 0.38224,-13.40146 c 15.82485,2.40753 17.05187,14.84764 -0.38224,13.40146 z"
       id="path22-7-7"
       sodipodi:nodetypes="cccccc" />
    <path
       style="fill:#ffffff;fill-opacity:1;stroke:none;stroke-width:0.232038;stroke-opacity:1"
       d="m 93.944641,145.63835 c 0.20034,10.53452 0.19112,21.06815 0.19112,31.60365 16.311759,0.90498 20.576929,-2.81762 20.640929,-15.58134 0.0936,-17.65918 -10.78354,-16.19703 -20.832049,-16.02231 z"
       id="path4-4"
       sodipodi:nodetypes="cccc" />
  </g>
</svg>
