<?xml version="1.0" encoding="UTF-8" standalone="no"?>
<!-- Created with Inkscape (http://www.inkscape.org/) -->

<svg
   width="210mm"
   height="297mm"
   viewBox="0 0 210 297"
   version="1.1"
   id="svg1"
   inkscape:version="1.3.2 (091e20e, 2023-11-25, custom)"
   sodipodi:docname="3..svg"
   xmlns:inkscape="http://www.inkscape.org/namespaces/inkscape"
   xmlns:sodipodi="http://sodipodi.sourceforge.net/DTD/sodipodi-0.dtd"
   xmlns="http://www.w3.org/2000/svg"
   xmlns:svg="http://www.w3.org/2000/svg">
  <sodipodi:namedview
     id="namedview1"
     pagecolor="#ffffff"
     bordercolor="#000000"
     borderopacity="0.25"
     inkscape:showpageshadow="2"
     inkscape:pageopacity="0.0"
     inkscape:pagecheckerboard="0"
     inkscape:deskcolor="#d1d1d1"
     inkscape:document-units="mm"
     inkscape:zoom="0.69219276"
     inkscape:cx="532.36616"
     inkscape:cy="584.37479"
     inkscape:window-width="1920"
     inkscape:window-height="991"
     inkscape:window-x="-9"
     inkscape:window-y="-9"
     inkscape:window-maximized="1"
     inkscape:current-layer="layer1" />
  <defs
     id="defs1" />
  <g
     inkscape:label="Réteg 1"
     inkscape:groupmode="layer"
     id="layer1">
    <path
       id="path4-8-7-9"
       style="fill:#993c3a;fill-opacity:1;stroke:none;stroke-width:1.04924;stroke-opacity:1"
       d="m 103.53137,63.018254 c -10.135927,0.306248 -48.573559,21.552477 -56.996691,23.265673 -33.177196,6.74797 -33.81301,22.814923 -27.382562,63.761093 1.597382,13.75174 4.054274,21.97022 1.106428,35.34116 9.912128,3.53266 15.9433,-19.66312 24.845808,-22.18814 -8.085491,-17.20935 -16.101128,4.20702 -6.880015,-9.09797 13.253848,-7.59952 129.720042,-5.94162 139.558402,1.38027 5.69331,6.69057 13.26488,-2.48921 -10.83643,5.84733 10.72479,5.41624 22.47558,27.45631 30.19701,24.86346 -3.20708,-14.54654 -4.43582,-24.81689 -2.67581,-40.13553 l -0.0558,0.003 c 8.7693,-54.769917 8.50426,-42.79566 -33.16218,-60.105983 C 142.13121,78.009909 119.29036,62.54211 103.53137,63.018254 Z m 6.71485,15.985106 c 9.24608,0.07682 11.33138,13.498673 11.24435,36.11097 -0.0732,20.11538 -4.95405,25.98185 -23.620266,24.55561 0,-16.60371 0.774579,-43.525063 0.545379,-60.12724 2.156047,-0.05163 9.696817,-0.55706 11.830537,-0.53934 z M 89.194852,82.029352 C 92.355591,97.651349 87.033426,116.18782 69.783135,113.68083 V 93.497053 Z m 37.695718,1.272629 21.32292,11.084942 c 3.16071,15.622057 -3.30811,22.691277 -20.55844,20.184287 z m 37.73018,13.728702 c 6.89672,-0.08771 14.49325,5.525527 12.37444,22.050847 v 0.19275 C 144.80628,111.1776 153.86189,97.167513 164.62075,97.030683 Z m -113.680909,0.37569 c 6.896657,-0.08771 14.493231,5.525667 12.374438,22.050847 v 0.19275 C 31.125588,111.55337 40.181047,97.543203 50.939841,97.406373 Z M 155.04408,117.51987 c 52.82289,13.28688 -5.42416,42.49763 0,0.19275 z m -113.680916,0.37569 c 52.822531,13.28673 -5.424109,42.49736 0,0.19275 z m 34.716744,0.89348 c 12.75131,-0.11282 17.358038,7.00804 14.592391,20.67729 H 70.113864 v -20.18429 c 2.156289,-0.31338 4.144429,-0.47688 5.966044,-0.493 z m 57.871402,0.88987 c 12.75135,-0.11282 17.35855,7.00847 14.59291,20.67781 h -20.55844 v -20.1843 c 2.1563,-0.31337 4.1439,-0.47739 5.96553,-0.49351 z"
       sodipodi:nodetypes="sscccccccccsscccccccccccccsccssccsccccccscccsscccs" />
    <rect
       style="fill:#993c3a;fill-opacity:1;stroke:none;stroke-width:4;stroke-linejoin:round"
       id="rect1"
       width="157.48264"
       height="8.0270281"
       x="30.96139"
       y="155.57141" />
  </g>
</svg>
